<?xml version="1.0" encoding="utf-8"?>
<!-- Generator: Adobe Illustrator 20.1.0, SVG Export Plug-In . SVG Version: 6.00 Build 0)  -->
<svg version="1.1" id="Layer_1" xmlns="http://www.w3.org/2000/svg" xmlns:xlink="http://www.w3.org/1999/xlink" x="0px" y="0px"
	 viewBox="0 0 152.6 66.7" style="enable-background:new 0 0 152.6 66.7;" xml:space="preserve">
<style type="text/css">
	.st0{clip-path:url(#SVGID_2_);}
	.st1{fill:#ACACAC;}
	.st2{fill:#2D2D2C;}
	.st3{clip-path:url(#SVGID_4_);}
	.st4{clip-path:url(#SVGID_6_);fill:#22B350;}
	.st5{clip-path:url(#SVGID_8_);}
	.st6{clip-path:url(#SVGID_10_);fill:#FFFFFF;}
	.st7{clip-path:url(#SVGID_12_);fill:none;stroke:#FFFFFF;stroke-width:0.5;stroke-miterlimit:10;}
</style>
<g>
	<defs>
		<rect id="SVGID_1_" x="-3.2" y="-3.1" width="160" height="72"/>
	</defs>
	<clipPath id="SVGID_2_">
		<use xlink:href="#SVGID_1_"  style="overflow:visible;"/>
	</clipPath>
	<g class="st0">
		<path class="st1" d="M75.6,39.5h1.1v4.2h4.7v-4.2h1.1v9h-1.1v-3.8h-4.7v3.8h-1.1V39.5z"/>
		<path class="st1" d="M84.3,45.4c0-1.8,1.3-3.2,3.2-3.2c1.8,0,3.2,1.3,3.2,3.2s-1.4,3.2-3.2,3.2C85.5,48.6,84.3,47.2,84.3,45.4z
			 M89.6,45.4c0-1.3-0.9-2.2-2.1-2.2c-1.3,0-2.2,1-2.2,2.2s0.9,2.2,2.2,2.2C88.6,47.7,89.6,46.7,89.6,45.4z"/>
		<path class="st1" d="M92.4,46.7v-3.5h-0.8v-0.9h0.8v-2.1l1-0.1v2.2h2.1v0.9h-2.1v3.3c0,0.7,0.2,1.1,0.8,1.1c0.4,0,0.7-0.2,1-0.3
			l0.3,0.9c-0.3,0.2-0.8,0.4-1.5,0.4C92.9,48.6,92.4,47.9,92.4,46.7z"/>
		<path class="st1" d="M102.3,45.8h-4.8c0.1,1.2,1,1.9,2.1,1.9c0.8,0,1.4-0.4,1.7-0.8l0.7,0.6c-0.5,0.7-1.4,1.2-2.5,1.2
			c-1.8,0-3.1-1.3-3.1-3.2c0-1.9,1.3-3.2,3-3.2c1.7,0,2.9,1.3,2.9,3.1C102.3,45.5,102.3,45.7,102.3,45.8z M97.5,44.9h3.7
			c-0.2-1-0.8-1.7-1.8-1.7C98.5,43.2,97.7,43.9,97.5,44.9z"/>
		<path class="st1" d="M103.9,39.2h1v9.3h-1V39.2z"/>
		<path class="st1" d="M106.5,47.7l0.5-0.8c0.5,0.4,1,0.7,1.9,0.7c0.7,0,1.2-0.4,1.2-0.8c0-0.5-0.6-0.7-1.5-1
			c-1-0.4-1.9-0.8-1.9-1.9c0-1,0.9-1.7,2-1.7c0.7,0,1.4,0.2,2.1,0.8l-0.5,0.8c-0.5-0.5-1.1-0.6-1.6-0.6c-0.5,0-1,0.3-1,0.7
			c0,0.5,0.5,0.7,1.2,1c1.3,0.5,2.2,0.7,2.2,1.9c0,1-0.7,1.8-2.2,1.8C107.9,48.6,107.1,48.3,106.5,47.7z"/>
	</g>
	<g class="st0">
		<path class="st2" d="M77.6,21.1H74v-3.4h10.9v3.4h-3.6v10.7h-3.7V21.1z"/>
		<path class="st2" d="M93.5,31.9l-2.7-4.3h-0.9v4.3h-3.6V17.8h5.6c3.5,0,5.1,2.1,5.1,5c0,2.1-0.9,3.5-2.4,4.2v0l3.2,4.9H93.5z
			 M89.9,24.3h1.2c1.2,0,2.1-0.6,2.1-1.6c0-0.9-0.7-1.6-2.1-1.6h-1.2V24.3z"/>
		<path class="st2" d="M99.1,17.8h9.4v3.4h-5.7v2.1h4.5v3.3h-4.5v2h6.1v3.4h-9.8V17.8z"/>
		<path class="st2" d="M110.4,17.8h9.4v3.4h-5.7v2.1h4.5v3.3h-4.5v2h6.1v3.4h-9.8V17.8z"/>
		<path class="st2" d="M132.8,27.9c0,2.3-1.5,4-4.5,4h-6.5V17.8h5.5c3.2,0,4.7,1.3,4.7,3.4c0,1.2-0.4,2.4-2.2,3.1v0
			C132.1,24.9,132.8,26.2,132.8,27.9z M125.5,23.3h1.2c0.9,0,1.5-0.4,1.5-1.1c0-0.7-0.5-1.2-1.6-1.2h-1.2V23.3z M128.9,27.3
			c0-0.7-0.5-1.2-1.7-1.2h-1.6v2.5h1.7C128.2,28.6,128.9,28.2,128.9,27.3z"/>
		<path class="st2" d="M133.8,24.8c0-4.3,3-7.3,7.3-7.3c4.3,0,7.3,2.9,7.3,7.3c0,4.3-3,7.2-7.3,7.2
			C136.8,32.1,133.8,29.1,133.8,24.8z M144.5,24.8c0-2.1-1.4-3.7-3.4-3.7c-2,0-3.4,1.6-3.4,3.7s1.4,3.7,3.4,3.7
			C143.1,28.5,144.5,26.9,144.5,24.8z"/>
	</g>
</g>
<g>
	<defs>
		<path id="SVGID_3_" d="M30.1,63.8c14.5,0,36.5-11.9,36.5-26.7S44.6,1.9,30.1,1.9S3.8,22.4,3.8,37.2S15.6,63.8,30.1,63.8z"/>
	</defs>
	<clipPath id="SVGID_4_">
		<use xlink:href="#SVGID_3_"  style="overflow:visible;"/>
	</clipPath>
	<g class="st3">
		<defs>
			<rect id="SVGID_5_" x="-3.2" y="-3.1" width="160" height="72"/>
		</defs>
		<clipPath id="SVGID_6_">
			<use xlink:href="#SVGID_5_"  style="overflow:visible;"/>
		</clipPath>
		<rect x="-1.2" y="-3.1" class="st4" width="72.8" height="71.9"/>
	</g>
</g>
<g>
	<defs>
		<path id="SVGID_7_" d="M23.2,23.7h-0.1v0.1H23v0.1h-0.1V24h-0.1v0.1h-0.1v0.1h-0.1v0.1h-0.1v0.1h-0.1v0.2h-0.1v0.4h-0.1v1.1h0.1
			v0.3h0.1v0.3h0.1v0.1h0.1v0.1h0.1v0.1h0.1v0.1h0.1v0.1H23v0.1h0.1v0.1h0.1v0.1h0.1v0.1h0.1v0.1h0.1v0.1h0.1v0.1h0.1V28h0.1v0.1
			h0.1v0.1h0.2v0.1h0.2v0.1h0.4v0.1h3.6v-0.1h0.1v-0.1h0.1v-0.1h0.1V28h0.1v-0.1h0.1v-0.6h-0.1v-0.1h-0.1V27h-0.1v-0.1h-0.1v-0.1
			h-0.1v-0.1h-3.2v-0.1h-0.4v-0.1h-0.2v-0.1h-0.1v-0.1h-0.1v-0.1h-0.1v-0.1h-0.1v-0.1h-0.1v-0.4H24v-0.1h0.1v-0.5h0.1V25h0.1v-0.1
			h0.1v-0.1h0.1v-0.1h0.1v-0.1h0.2v-0.1h0.3v-0.1h16.7l0.4,0.1l0.2,0.1l0.1,0.1l0.1,0.1l0.1,0.1l0.1,0.1l0.1,0.1l0.1,0.3v0.1
			L42.8,26l-0.1,0.1l-0.1,0.1l-0.1,0.1l-0.1,0.1l-0.1,0.1h-0.1v0.1h-0.1v0.1h-0.1v0.1h-0.3v0.1h-9.4v0.1h-0.4V27h-0.2v0.1h-0.1v0.1
			h-0.1v0.1h-0.1v0.1h-0.1v0.1h-0.1v0.1h-0.1v0.1h-0.1v0.1h-0.1v0.1h-0.1v0.1H31v0.1h-0.1v0.1h-0.1v0.1h-0.1v0.2h-0.1v0.1h-0.1v0.2
			h-0.1v0.4h-0.1v0.5h-0.1v13.5h0.1v0.6h0.1v0.4h0.1v0.2h0.1v0.2h0.1v0.2h0.1v0.1h0.1v0.2H31v0.1h0.1v0.1h0.1v0.1h0.1v0.1h0.1v0.1
			h0.1v0.1h0.1v0.1h0.1v0.1h0.1v0.1h0.1V46h0.1V46h0.1v0.1h0.1v0.1h0.1v0.1h0.1v0.1h0.2v0.1h0.1v0.1h0.3v0.1h1.2v-0.1h0.4v-0.1h0.2
			v-0.1h0.2v-0.1H35v-0.1h0.1v-0.1h0.1V46h0.1V46h0.1v-0.1h0.1v-0.1h0.1v-0.1h0.1v-0.1h0.1v-0.1h0.1v-0.1h0.1v-0.1H36v-0.1h0.1v-0.1
			h0.1v-0.1h0.1V45h0.1v-0.1h0.1v-0.1h0.1v-0.1h0.1v-0.2h0.1v-0.2h0.1v-0.2h0.1v-0.4h0.1v-12h-0.1v-0.1h-0.1v-0.1h-0.1v-0.1h-0.1V31
			h-0.1v-0.1h-0.2v-0.1h-0.3v0.1h-0.2V31h-0.1v0.1h-0.1v0.1h-0.1v0.1h-0.1v0.1h-0.1v11.7h-0.1v0.4h-0.1v0.2H35v0.2h-0.1v0.1h-0.1
			v0.1h-0.1v0.1h-0.1v0.1h-0.1v0.1h-0.1v0.1h-0.1v0.1h-0.1v0.1h-0.1v0.1h-0.1v0.1h-0.4V45h-0.4v-0.1H33v-0.1h-0.1v-0.1h-0.1v-0.1
			h-0.1v-0.1h-0.1v-0.1h-0.1v-0.1h-0.1v-0.1h-0.1v-0.1h-0.1V44h-0.1v-0.3h-0.1v-0.3h-0.1v-8.5v-5.4h0.1v-0.4h0.1V29h0.1v-0.1h0.1
			v-0.1h0.1v-0.1h0.1v-0.1h0.3v-0.1c0,0,0.6,0,3.2,0c2.7,0,5.3,0,5.3,0v0.1h0.1v-0.1h0.6v-0.1h0.3v-0.1h0.2v-0.1h0.1v-0.1H43v-0.1
			h0.1V28h0.1v-0.1h0.1v-0.1h0.1v-0.1h0.1v-0.1h0.1v-0.1h0.1v-0.1h0.1v-0.1h0.1v-0.1h0.1v-0.1h0.1v-0.1H44v-0.1h0.1v-0.1h0.1v-0.1
			h0.1v-0.1h0.1v-0.2h0.1v-0.4h0.1v-1.2h-0.1v-0.3h-0.1v-0.1h-0.1v-0.1h-0.1v-0.1h-0.1V24H44V24h-0.1v-0.1h-0.1v-0.1h-0.1v-0.1h-0.1
			v-0.1h-0.1v-0.1h-0.1v-0.1h-0.1v-0.1h-0.1v-0.1h-0.1v-0.1H43v-0.1h-0.2v-0.1h-0.2V23h-0.4v-0.1H24.9V23h-0.4v0.1h-0.3v0.1h-0.1
			v0.1h-0.2v0.1h-0.1v0.1h-0.1v0.1h-0.1v0.1h-0.1v0.1h-0.1L23.2,23.7L23.2,23.7L23.2,23.7z"/>
	</defs>
	<clipPath id="SVGID_8_">
		<use xlink:href="#SVGID_7_"  style="overflow:visible;"/>
	</clipPath>
	<g class="st5">
		<defs>
			<rect id="SVGID_9_" x="-3.2" y="-3.1" width="160" height="72"/>
		</defs>
		<clipPath id="SVGID_10_">
			<use xlink:href="#SVGID_9_"  style="overflow:visible;"/>
		</clipPath>
		<rect x="17.4" y="17.9" class="st6" width="32" height="33.6"/>
	</g>
</g>
<g>
	<defs>
		<rect id="SVGID_11_" x="-3.2" y="-3.1" width="160" height="72"/>
	</defs>
	<clipPath id="SVGID_12_">
		<use xlink:href="#SVGID_11_"  style="overflow:visible;"/>
	</clipPath>
	<path class="st7" d="M23.2,23.7h-0.1v0.1H23v0.1h-0.1V24h-0.1v0.1h-0.1v0.1h-0.1v0.1h-0.1v0.1h-0.1v0.2h-0.1v0.4h-0.1v1.1h0.1v0.3
		h0.1v0.3h0.1v0.1h0.1v0.1h0.1v0.1h0.1v0.1h0.1v0.1H23v0.1h0.1v0.1h0.1v0.1h0.1v0.1h0.1v0.1h0.1v0.1h0.1v0.1h0.1V28h0.1v0.1h0.1v0.1
		h0.2v0.1h0.2v0.1h0.4v0.1h3.6v-0.1h0.1v-0.1h0.1v-0.1h0.1V28h0.1v-0.1h0.1v-0.6h-0.1v-0.1h-0.1V27h-0.1v-0.1h-0.1v-0.1h-0.1v-0.1
		h-3.2v-0.1h-0.4v-0.1h-0.2v-0.1h-0.1v-0.1h-0.1v-0.1h-0.1v-0.1h-0.1v-0.1h-0.1v-0.4H24v-0.1h0.1v-0.5h0.1V25h0.1v-0.1h0.1v-0.1h0.1
		v-0.1h0.1v-0.1h0.2v-0.1h0.3v-0.1h16.7l0.4,0.1l0.2,0.1l0.1,0.1l0.1,0.1l0.1,0.1l0.1,0.1l0.1,0.1l0.1,0.3v0.1L42.8,26l-0.1,0.1
		l-0.1,0.1l-0.1,0.1l-0.1,0.1l-0.1,0.1h-0.1v0.1h-0.1v0.1h-0.1v0.1h-0.3v0.1h-9.4v0.1h-0.4V27h-0.2v0.1h-0.1v0.1h-0.1v0.1h-0.1v0.1
		h-0.1v0.1h-0.1v0.1h-0.1v0.1h-0.1v0.1h-0.1v0.1h-0.1v0.1H31v0.1h-0.1v0.1h-0.1v0.1h-0.1v0.2h-0.1v0.1h-0.1v0.2h-0.1v0.4h-0.1v0.5
		h-0.1v13.5h0.1v0.6h0.1v0.4h0.1v0.2h0.1v0.2h0.1v0.2h0.1v0.1h0.1v0.2H31v0.1h0.1v0.1h0.1v0.1h0.1v0.1h0.1v0.1h0.1v0.1h0.1v0.1h0.1
		v0.1h0.1v0.1h0.1V46h0.1V46h0.1v0.1h0.1v0.1h0.1v0.1h0.1v0.1h0.2v0.1h0.1v0.1h0.3v0.1h1.2v-0.1h0.4v-0.1h0.2v-0.1h0.2v-0.1H35v-0.1
		h0.1v-0.1h0.1V46h0.1V46h0.1v-0.1h0.1v-0.1h0.1v-0.1h0.1v-0.1h0.1v-0.1h0.1v-0.1h0.1v-0.1H36v-0.1h0.1v-0.1h0.1v-0.1h0.1V45h0.1
		v-0.1h0.1v-0.1h0.1v-0.1h0.1v-0.2h0.1v-0.2h0.1v-0.2h0.1v-0.4h0.1v-12h-0.1v-0.1h-0.1v-0.1h-0.1v-0.1h-0.1V31h-0.1v-0.1h-0.2v-0.1
		h-0.3v0.1h-0.2V31h-0.1v0.1h-0.1v0.1h-0.1v0.1h-0.1v0.1h-0.1v11.7h-0.1v0.4h-0.1v0.2H35v0.2h-0.1v0.1h-0.1v0.1h-0.1v0.1h-0.1v0.1
		h-0.1v0.1h-0.1v0.1h-0.1v0.1h-0.1v0.1h-0.1v0.1h-0.1v0.1h-0.4V45h-0.4v-0.1H33v-0.1h-0.1v-0.1h-0.1v-0.1h-0.1v-0.1h-0.1v-0.1h-0.1
		v-0.1h-0.1v-0.1h-0.1v-0.1h-0.1V44h-0.1v-0.3h-0.1v-0.3h-0.1v-8.5v-5.4h0.1v-0.4h0.1V29h0.1v-0.1h0.1v-0.1h0.1v-0.1h0.1v-0.1h0.3
		v-0.1c0,0,0.6,0,3.2,0c2.7,0,5.3,0,5.3,0v0.1h0.1v-0.1h0.6v-0.1h0.3v-0.1h0.2v-0.1h0.1v-0.1H43v-0.1h0.1V28h0.1v-0.1h0.1v-0.1h0.1
		v-0.1h0.1v-0.1h0.1v-0.1h0.1v-0.1h0.1v-0.1h0.1v-0.1h0.1v-0.1h0.1v-0.1H44v-0.1h0.1v-0.1h0.1v-0.1h0.1v-0.1h0.1v-0.2h0.1v-0.4h0.1
		v-1.2h-0.1v-0.3h-0.1v-0.1h-0.1v-0.1h-0.1v-0.1h-0.1V24H44V24h-0.1v-0.1h-0.1v-0.1h-0.1v-0.1h-0.1v-0.1h-0.1v-0.1h-0.1v-0.1h-0.1
		v-0.1h-0.1v-0.1h-0.1v-0.1H43v-0.1h-0.2v-0.1h-0.2V23h-0.4v-0.1H24.9V23h-0.4v0.1h-0.3v0.1h-0.1v0.1h-0.2v0.1h-0.1v0.1h-0.1v0.1
		h-0.1v0.1h-0.1v0.1h-0.1L23.2,23.7L23.2,23.7L23.2,23.7z"/>
</g>
</svg>
